{
	"asset":{
		"version":"2.0",
		"generator":"Maxon Cinema 4D 2025.3.3 (#200000219)"
	},
	"scenes":[{
		"nodes":[0,
		1]
	}],
	"accessors":[{
		"bufferView":0,
		"type":"SCALAR",
		"componentType":5123,
		"count":5760,
		"byteOffset":0,
		"min":[0],
		"max":[5759]
	},
	{
		"bufferView":1,
		"type":"VEC3",
		"componentType":5126,
		"count":5760,
		"byteOffset":0,
		"min":[-0.612140417098999,
		-0.3092777729034424,
		-0.612140417098999],
		"max":[0.612140417098999,
		0.30209392309188845,
		0.612140417098999]
	},
	{
		"bufferView":1,
		"type":"VEC3",
		"componentType":5126,
		"count":5760,
		"byteOffset":12,
		"min":[-0.9999951124191284,
		-0.9944714307785034,
		-0.9999951124191284],
		"max":[0.9999951124191284,
		0.9978470802307129,
		0.9999951124191284]
	},
	{
		"bufferView":1,
		"type":"VEC2",
		"componentType":5126,
		"count":5760,
		"byteOffset":24,
		"min":[0.04671747609972954,
		0.0],
		"max":[1.0,
		1.0]
	},
	{
		"bufferView":2,
		"type":"SCALAR",
		"componentType":5123,
		"count":3120,
		"byteOffset":0,
		"min":[0],
		"max":[3119]
	},
	{
		"bufferView":3,
		"type":"VEC3",
		"componentType":5126,
		"count":3120,
		"byteOffset":0,
		"min":[-0.20034357905387879,
		-0.05537134036421776,
		-0.20034357905387879],
		"max":[0.20034357905387879,
		0.05537134036421776,
		0.20034357905387879]
	},
	{
		"bufferView":3,
		"type":"VEC3",
		"componentType":5126,
		"count":3120,
		"byteOffset":12,
		"min":[-1.0,
		-1.0,
		-1.0],
		"max":[1.0,
		1.0,
		1.0]
	},
	{
		"bufferView":3,
		"type":"VEC2",
		"componentType":5126,
		"count":3120,
		"byteOffset":24,
		"min":[0.0,
		0.0],
		"max":[1.0,
		1.0]
	},
	{
		"bufferView":4,
		"type":"SCALAR",
		"componentType":5123,
		"count":828,
		"byteOffset":0,
		"min":[0],
		"max":[827]
	},
	{
		"bufferView":5,
		"type":"VEC3",
		"componentType":5126,
		"count":828,
		"byteOffset":0,
		"min":[-0.965487539768219,
		-2.544126272201538,
		-1.3684180974960328],
		"max":[1.0194783210754395,
		1.0036613941192628,
		-1.1746360063552857]
	},
	{
		"bufferView":5,
		"type":"VEC3",
		"componentType":5126,
		"count":828,
		"byteOffset":12,
		"min":[-1.0,
		-0.9988368153572083,
		-1.0],
		"max":[1.0,
		0.9988368153572083,
		1.0]
	},
	{
		"bufferView":5,
		"type":"VEC2",
		"componentType":5126,
		"count":828,
		"byteOffset":24,
		"min":[0.0,
		0.0],
		"max":[1.0,
		1.0]
	},
	{
		"bufferView":6,
		"type":"SCALAR",
		"componentType":5123,
		"count":1740,
		"byteOffset":0,
		"min":[0],
		"max":[1739]
	},
	{
		"bufferView":7,
		"type":"VEC3",
		"componentType":5126,
		"count":1740,
		"byteOffset":0,
		"min":[-0.3931151330471039,
		-0.33818504214286806,
		-0.14260941743850709],
		"max":[0.44850531220436098,
		0.5021061301231384,
		0.005629704799503088]
	},
	{
		"bufferView":7,
		"type":"VEC3",
		"componentType":5126,
		"count":1740,
		"byteOffset":12,
		"min":[-0.8929948806762695,
		-0.8967971801757813,
		0.4397898018360138],
		"max":[0.8846246004104614,
		0.8797993659973145,
		0.8980436325073242]
	},
	{
		"bufferView":7,
		"type":"VEC2",
		"componentType":5126,
		"count":1740,
		"byteOffset":24,
		"min":[0.0,
		0.0],
		"max":[1.0,
		1.0]
	},
	{
		"bufferView":8,
		"type":"SCALAR",
		"componentType":5123,
		"count":420,
		"byteOffset":0,
		"min":[0],
		"max":[419]
	},
	{
		"bufferView":9,
		"type":"VEC3",
		"componentType":5126,
		"count":420,
		"byteOffset":0,
		"min":[-0.17023101449012757,
		-0.49216389656066897,
		-2.7963974475860597],
		"max":[0.17023101449012757,
		-0.16535772383213044,
		-2.6814017295837404]
	},
	{
		"bufferView":9,
		"type":"VEC3",
		"componentType":5126,
		"count":420,
		"byteOffset":12,
		"min":[-0.9995884895324707,
		-0.9504026770591736,
		-0.9507960677146912],
		"max":[0.9995884895324707,
		0.9504026770591736,
		0.9507960677146912]
	},
	{
		"bufferView":9,
		"type":"VEC2",
		"componentType":5126,
		"count":420,
		"byteOffset":24,
		"min":[0.0,
		0.0],
		"max":[1.0,
		1.0]
	},
	{
		"bufferView":10,
		"type":"SCALAR",
		"componentType":5123,
		"count":6204,
		"byteOffset":0,
		"min":[0],
		"max":[6203]
	},
	{
		"bufferView":11,
		"type":"VEC3",
		"componentType":5126,
		"count":6204,
		"byteOffset":0,
		"min":[-0.9339569211006165,
		-2.475665330886841,
		-3.4108126163482668],
		"max":[0.9879476428031921,
		1.038400650024414,
		-2.203603506088257]
	},
	{
		"bufferView":11,
		"type":"VEC3",
		"componentType":5126,
		"count":6204,
		"byteOffset":12,
		"min":[-0.9984932541847229,
		-0.9741769433021545,
		-0.9853264093399048],
		"max":[0.9984205365180969,
		0.9987369775772095,
		1.0]
	},
	{
		"bufferView":11,
		"type":"VEC2",
		"componentType":5126,
		"count":6204,
		"byteOffset":24,
		"min":[0.0,
		0.0],
		"max":[1.0,
		1.0]
	},
	{
		"bufferView":12,
		"type":"SCALAR",
		"componentType":5123,
		"count":2880,
		"byteOffset":0,
		"min":[0],
		"max":[2879]
	},
	{
		"bufferView":13,
		"type":"VEC3",
		"componentType":5126,
		"count":2880,
		"byteOffset":0,
		"min":[-0.0354488231241703,
		-0.0354488231241703,
		-0.0354488231241703],
		"max":[0.0354488231241703,
		0.0354488231241703,
		0.0354488231241703]
	},
	{
		"bufferView":13,
		"type":"VEC3",
		"componentType":5126,
		"count":2880,
		"byteOffset":12,
		"min":[-1.0,
		-1.0,
		-1.0],
		"max":[1.0,
		1.0,
		1.0]
	},
	{
		"bufferView":13,
		"type":"VEC2",
		"componentType":5126,
		"count":2880,
		"byteOffset":24,
		"min":[0.0,
		0.0],
		"max":[1.0,
		1.0]
	},
	{
		"bufferView":14,
		"type":"SCALAR",
		"componentType":5123,
		"count":2880,
		"byteOffset":0,
		"min":[0],
		"max":[2879]
	},
	{
		"bufferView":15,
		"type":"VEC3",
		"componentType":5126,
		"count":2880,
		"byteOffset":0,
		"min":[-0.0354488231241703,
		-0.0354488231241703,
		-0.0354488231241703],
		"max":[0.0354488231241703,
		0.0354488231241703,
		0.0354488231241703]
	},
	{
		"bufferView":15,
		"type":"VEC3",
		"componentType":5126,
		"count":2880,
		"byteOffset":12,
		"min":[-1.0,
		-1.0,
		-1.0],
		"max":[1.0,
		1.0,
		1.0]
	},
	{
		"bufferView":15,
		"type":"VEC2",
		"componentType":5126,
		"count":2880,
		"byteOffset":24,
		"min":[0.0,
		0.0],
		"max":[1.0,
		1.0]
	},
	{
		"bufferView":16,
		"type":"SCALAR",
		"componentType":5123,
		"count":10812,
		"byteOffset":0,
		"min":[0],
		"max":[10811]
	},
	{
		"bufferView":17,
		"type":"VEC3",
		"componentType":5126,
		"count":10812,
		"byteOffset":0,
		"min":[-0.9054771661758423,
		-2.4771080017089845,
		-1.7054067850112916],
		"max":[0.9594678282737732,
		1.0462030172348023,
		-1.1232894659042359]
	},
	{
		"bufferView":17,
		"type":"VEC3",
		"componentType":5126,
		"count":10812,
		"byteOffset":12,
		"min":[-0.9999231696128845,
		-0.9361770153045654,
		-1.0],
		"max":[0.9998425245285034,
		0.9391481876373291,
		0.9336252212524414]
	},
	{
		"bufferView":17,
		"type":"VEC2",
		"componentType":5126,
		"count":10812,
		"byteOffset":24,
		"min":[0.0015025581233203412,
		-2.6227773730624905e-8],
		"max":[0.9998780488967896,
		1.0]
	},
	{
		"bufferView":18,
		"type":"SCALAR",
		"componentType":5123,
		"count":28488,
		"byteOffset":0,
		"min":[0],
		"max":[28487]
	},
	{
		"bufferView":19,
		"type":"VEC3",
		"componentType":5126,
		"count":28488,
		"byteOffset":0,
		"min":[-0.34357959032058718,
		-0.34887149930000307,
		-0.13556839525699616],
		"max":[0.34721019864082339,
		0.3416461646556854,
		0.0]
	},
	{
		"bufferView":19,
		"type":"VEC3",
		"componentType":5126,
		"count":28488,
		"byteOffset":12,
		"min":[-1.0,
		-0.999975323677063,
		-1.0],
		"max":[1.0,
		0.999992847442627,
		1.0]
	},
	{
		"bufferView":19,
		"type":"VEC2",
		"componentType":5126,
		"count":28488,
		"byteOffset":24,
		"min":[0.0,
		0.0],
		"max":[1.0,
		0.9999997615814209]
	},
	{
		"bufferView":20,
		"type":"SCALAR",
		"componentType":5123,
		"count":15492,
		"byteOffset":0,
		"min":[0],
		"max":[15491]
	},
	{
		"bufferView":21,
		"type":"VEC3",
		"componentType":5126,
		"count":15492,
		"byteOffset":0,
		"min":[-0.10492897033691406,
		-0.10492999851703644,
		-0.13556839525699616],
		"max":[0.10492897033691406,
		0.10492999851703644,
		0.0]
	},
	{
		"bufferView":21,
		"type":"VEC3",
		"componentType":5126,
		"count":15492,
		"byteOffset":12,
		"min":[-0.9999949932098389,
		-0.9999985694885254,
		-1.0],
		"max":[0.9999979734420776,
		0.9999977350234985,
		1.0]
	},
	{
		"bufferView":21,
		"type":"VEC2",
		"componentType":5126,
		"count":15492,
		"byteOffset":24,
		"min":[0.0,
		0.0],
		"max":[1.0,
		1.0]
	}],
	"nodes":[{
		"name":"red earbud",
		"children":[2,
		3,
		4],
		"translation":[0.9019905924797058,
		0.010933811776340008,
		-0.7621636986732483],
		"rotation":[0.01592121087014675,
		-0.6496747136116028,
		0.010530372150242329,
		-0.7599726319313049],
		"scale":[1.0,
		1.0,
		1.0]
	},
	{
		"name":"cameras",
		"children":[5,
		6,
		7,
		8],
		"translation":[-1.461991548538208,
		-0.30387330055236819,
		9.678439140319825],
		"rotation":[0.0,
		0.0,
		0.0,
		-1.0],
		"scale":[1.0,
		1.0,
		1.0]
	},
	{
		"name":"front",
		"children":[9,
		10,
		11,
		12],
		"translation":[0.002882991451770067,
		-0.14919917285442353,
		-0.8643819689750671],
		"rotation":[0.0,
		0.0,
		0.0,
		-1.0],
		"scale":[1.0,
		1.0,
		1.0]
	},
	{
		"name":"aluminum bezel",
		"children":[13],
		"translation":[0.0033831410109996797,
		0.10008838772773743,
		0.5857885479927063],
		"rotation":[0.0,
		0.0,
		0.0,
		-1.0],
		"scale":[1.0,
		1.0,
		1.0]
	},
	{
		"name":"back",
		"children":[14,
		15,
		16,
		17],
		"translation":[-0.006266132462769747,
		0.049110788851976398,
		0.2785934507846832],
		"rotation":[0.0,
		0.0,
		0.0,
		-1.0],
		"scale":[1.0,
		1.0,
		1.0]
	},
	{
		"name":"closeup camera",
		"scale":[1.0,
		1.0,
		1.0],
		"camera":0,
		"translation":[6.661304950714111,
		0.820549488067627,
		-11.707793235778809],
		"rotation":[-0.0018880163552239538,
		-0.7869269847869873,
		0.002407841384410858,
		-0.6170385479927063]
	},
	{
		"name":"poster camera 2",
		"scale":[1.0,
		1.0,
		1.0],
		"camera":1,
		"translation":[1.0584001541137696,
		-1.2144544124603272,
		11.36742877960205],
		"rotation":[-0.042033370584249499,
		-0.023208795115351678,
		-0.0009766708826646209,
		0.9988461136817932]
	},
	{
		"name":"video camera",
		"scale":[1.0,
		1.0,
		1.0],
		"camera":2,
		"translation":[1.4911108016967774,
		0.08967417478561402,
		-1.8370816707611085],
		"rotation":[0.024305250495672227,
		-0.010298162698745728,
		-0.000250386685365811,
		-0.9996514916419983]
	},
	{
		"name":"poster camera 1",
		"scale":[1.0,
		1.0,
		1.0],
		"camera":3,
		"translation":[-9.2108154296875,
		0.30423080921173098,
		2.177445650100708],
		"rotation":[-0.01860598474740982,
		-0.3663884401321411,
		-0.00732817966490984,
		0.9302470684051514]
	},
	{
		"name":"matte speaker",
		"children":[18],
		"translation":[0.0005001495010219514,
		0.19768747687339784,
		1.7147893905639649],
		"rotation":[0.0,
		0.0,
		0.0,
		-1.0],
		"scale":[1.0,
		1.0,
		1.0]
	},
	{
		"name":"silicone earpiece",
		"mesh":0,
		"translation":[-0.0010002990020439029,
		-0.1262555718421936,
		-1.0178098678588868],
		"rotation":[0.7979245781898499,
		-1.195055045197512e-17,
		1.195055045197512e-17,
		-0.6027572751045227],
		"scale":[1.0,
		1.0,
		1.0]
	},
	{
		"name":"ring",
		"mesh":1,
		"translation":[0.0005001495010219514,
		-0.12168996781110764,
		-0.9925926923751831],
		"rotation":[0.7941023111343384,
		-1.1408697519916135e-17,
		1.1408697519916135e-17,
		-0.6077841520309448],
		"scale":[1.0,
		1.0,
		1.0]
	},
	{
		"name":"front housing",
		"children":[19],
		"translation":[0.0005001495010219514,
		0.19768747687339784,
		2.288090229034424],
		"rotation":[0.0,
		0.0,
		0.0,
		-1.0],
		"scale":[1.0,
		1.0,
		1.0]
	},
	{
		"name":"aluminum bezel",
		"mesh":2
	},
	{
		"name":"charger nodes",
		"children":[20,
		21],
		"translation":[0.03740355372428894,
		-1.7123401165008546,
		-0.47950705885887148],
		"rotation":[0.0,
		0.0,
		0.0,
		-1.0],
		"scale":[1.0,
		1.0,
		1.0]
	},
	{
		"name":"back housing",
		"children":[22],
		"translation":[0.009649273008108139,
		-0.0006224924582056701,
		0.0],
		"rotation":[0.0,
		0.0,
		0.0,
		-1.0],
		"scale":[1.0,
		1.0,
		1.0]
	},
	{
		"name":"volume ring",
		"mesh":3,
		"translation":[0.009649273008108139,
		-0.0006224924582056701,
		-0.26270031929016116],
		"rotation":[0.0,
		0.0,
		0.0,
		-1.0],
		"scale":[1.0,
		1.0,
		1.0]
	},
	{
		"name":"branding/on/off/mode switch",
		"children":[23],
		"translation":[-0.019298546016216279,
		0.0012449849164113403,
		-0.26270031929016116],
		"rotation":[0.0,
		0.0,
		0.0,
		-1.0],
		"scale":[1.0,
		1.0,
		1.0]
	},
	{
		"name":"matte speaker",
		"mesh":4
	},
	{
		"name":"front housing",
		"mesh":5
	},
	{
		"name":"charger right",
		"mesh":6,
		"translation":[0.3374866843223572,
		0.0,
		0.0],
		"rotation":[0.0,
		0.0,
		0.0,
		-1.0],
		"scale":[1.0,
		1.0,
		1.0]
	},
	{
		"name":"charger left",
		"mesh":7,
		"translation":[-0.3374866843223572,
		0.0,
		0.0],
		"rotation":[0.0,
		0.0,
		0.0,
		-1.0],
		"scale":[1.0,
		1.0,
		1.0]
	},
	{
		"name":"Loft_remesh",
		"mesh":8,
		"translation":[7.105427198782324e-17,
		-2.2204460823375377e-17,
		0.829580545425415],
		"rotation":[-2.949029909160572e-17,
		4.440892098500626e-16,
		1.2246468525851679e-16,
		1.0],
		"scale":[1.0,
		1.0,
		1.0]
	},
	{
		"name":"Path 1",
		"children":[24,
		25]
	},
	{
		"name":"Path 1",
		"mesh":9,
		"translation":[0.05255107209086418,
		0.08013986051082611,
		0.0],
		"rotation":[0.0,
		0.0,
		0.0,
		-1.0],
		"scale":[1.0,
		1.0,
		1.0]
	},
	{
		"name":"Path 2",
		"mesh":10,
		"translation":[0.05436904355883598,
		0.07652407884597779,
		0.0],
		"rotation":[0.0,
		0.0,
		0.0,
		-1.0],
		"scale":[1.0,
		1.0,
		1.0]
	}],
	"meshes":[{
		"name":"silicone earpiece",
		"primitives":[{
			"attributes":{
				"POSITION":1,
				"NORMAL":2,
				"TEXCOORD_0":3
			},
			"indices":0,
			"material":0
		}]
	},
	{
		"name":"ring",
		"primitives":[{
			"attributes":{
				"POSITION":5,
				"NORMAL":6,
				"TEXCOORD_0":7
			},
			"indices":4,
			"material":1
		}]
	},
	{
		"name":"aluminum bezel",
		"primitives":[{
			"attributes":{
				"POSITION":9,
				"NORMAL":10,
				"TEXCOORD_0":11
			},
			"indices":8,
			"material":2
		}]
	},
	{
		"name":"volume ring",
		"primitives":[{
			"attributes":{
				"POSITION":13,
				"NORMAL":14,
				"TEXCOORD_0":15
			},
			"indices":12,
			"material":2
		}]
	},
	{
		"name":"matte speaker",
		"primitives":[{
			"attributes":{
				"POSITION":17,
				"NORMAL":18,
				"TEXCOORD_0":19
			},
			"indices":16,
			"material":3
		}]
	},
	{
		"name":"front housing",
		"primitives":[{
			"attributes":{
				"POSITION":21,
				"NORMAL":22,
				"TEXCOORD_0":23
			},
			"indices":20,
			"material":1
		}]
	},
	{
		"name":"charger right",
		"primitives":[{
			"attributes":{
				"POSITION":25,
				"NORMAL":26,
				"TEXCOORD_0":27
			},
			"indices":24,
			"material":4
		}]
	},
	{
		"name":"charger left",
		"primitives":[{
			"attributes":{
				"POSITION":29,
				"NORMAL":30,
				"TEXCOORD_0":31
			},
			"indices":28,
			"material":4
		}]
	},
	{
		"name":"Loft_remesh",
		"primitives":[{
			"attributes":{
				"POSITION":33,
				"NORMAL":34,
				"TEXCOORD_0":35
			},
			"indices":32,
			"material":1
		}]
	},
	{
		"name":"Path 1",
		"primitives":[{
			"attributes":{
				"POSITION":37,
				"NORMAL":38,
				"TEXCOORD_0":39
			},
			"indices":36,
			"material":1
		}]
	},
	{
		"name":"Path 2",
		"primitives":[{
			"attributes":{
				"POSITION":41,
				"NORMAL":42,
				"TEXCOORD_0":43
			},
			"indices":40,
			"material":1
		}]
	}],
	"cameras":[{
		"type":"perspective",
		"perspective":{
			"znear":0.009999999776482582,
			"zfar":10000000000.0,
			"aspectRatio":1.7777777910232545,
			"yfov":0.22529910504817964
		}
	},
	{
		"type":"perspective",
		"perspective":{
			"znear":0.009999999776482582,
			"zfar":10000000000.0,
			"aspectRatio":1.7777777910232545,
			"yfov":0.43422263860702517
		}
	},
	{
		"type":"perspective",
		"perspective":{
			"znear":0.009999999776482582,
			"zfar":10000000000.0,
			"aspectRatio":1.7777777910232545,
			"yfov":0.71030592918396
		}
	},
	{
		"type":"perspective",
		"perspective":{
			"znear":0.009999999776482582,
			"zfar":10000000000.0,
			"aspectRatio":1.7777777910232545,
			"yfov":0.37614068388938906
		}
	}],
	"bufferViews":[{
		"buffer":0,
		"byteOffset":0,
		"byteLength":11520,
		"target":34963
	},
	{
		"buffer":0,
		"byteOffset":11520,
		"byteLength":184320,
		"target":34962,
		"byteStride":32
	},
	{
		"buffer":1,
		"byteOffset":0,
		"byteLength":6240,
		"target":34963
	},
	{
		"buffer":1,
		"byteOffset":6240,
		"byteLength":99840,
		"target":34962,
		"byteStride":32
	},
	{
		"buffer":2,
		"byteOffset":0,
		"byteLength":1656,
		"target":34963
	},
	{
		"buffer":2,
		"byteOffset":1656,
		"byteLength":26496,
		"target":34962,
		"byteStride":32
	},
	{
		"buffer":3,
		"byteOffset":0,
		"byteLength":3480,
		"target":34963
	},
	{
		"buffer":3,
		"byteOffset":3480,
		"byteLength":55680,
		"target":34962,
		"byteStride":32
	},
	{
		"buffer":4,
		"byteOffset":0,
		"byteLength":840,
		"target":34963
	},
	{
		"buffer":4,
		"byteOffset":840,
		"byteLength":13440,
		"target":34962,
		"byteStride":32
	},
	{
		"buffer":5,
		"byteOffset":0,
		"byteLength":12408,
		"target":34963
	},
	{
		"buffer":5,
		"byteOffset":12408,
		"byteLength":198528,
		"target":34962,
		"byteStride":32
	},
	{
		"buffer":6,
		"byteOffset":0,
		"byteLength":5760,
		"target":34963
	},
	{
		"buffer":6,
		"byteOffset":5760,
		"byteLength":92160,
		"target":34962,
		"byteStride":32
	},
	{
		"buffer":7,
		"byteOffset":0,
		"byteLength":5760,
		"target":34963
	},
	{
		"buffer":7,
		"byteOffset":5760,
		"byteLength":92160,
		"target":34962,
		"byteStride":32
	},
	{
		"buffer":8,
		"byteOffset":0,
		"byteLength":21624,
		"target":34963
	},
	{
		"buffer":8,
		"byteOffset":21624,
		"byteLength":345984,
		"target":34962,
		"byteStride":32
	},
	{
		"buffer":9,
		"byteOffset":0,
		"byteLength":56976,
		"target":34963
	},
	{
		"buffer":9,
		"byteOffset":56976,
		"byteLength":911616,
		"target":34962,
		"byteStride":32
	},
	{
		"buffer":10,
		"byteOffset":0,
		"byteLength":30984,
		"target":34963
	},
	{
		"buffer":10,
		"byteOffset":30984,
		"byteLength":495744,
		"target":34962,
		"byteStride":32
	}],
	"buffers":[{
		"uri":"data:application/octet-stream;base64,",
		"byteLength":195840
	},
	{
		"uri":"data:application/octet-stream;base64,",
		"byteLength":106080
	},
	{
		"uri":"data:application/octet-stream;base64,",
		"byteLength":28152
	},
	{
		"uri":"data:application/octet-stream;base64,",
		"byteLength":59160
	},
	{
		"uri":"data:application/octet-stream;base64,",
		"byteLength":14280
	},
	{
		"uri":"data:application/octet-stream;base64,",
		"byteLength":210936
	},
	{
		"uri":"data:application/octet-stream;base64,",
		"byteLength":97920
	},
	{
		"uri":"data:application/octet-stream;base64,",
		"byteLength":97920
	},
	{
		"uri":"data:application/octet-stream;base64,",
		"byteLength":367608
	},
	{
		"uri":"data:application/octet-stream;base64,",
		"byteLength":968592
	},
	{
		"uri":"data:application/octet-stream;base64,",
		"byteLength":526728
	}],
	"materials":[{
		"pbrMetallicRoughness":{
			"baseColorFactor":[0.1123611624527695,
			0.1123611624527695,
			0.1123611624527695,
			1.0],
			"metallicFactor":0.0,
			"roughnessFactor":0.38500001828651878
		},
		"emissiveFactor":[0.0,
		0.0,
		0.0],
		"alphaMode":"OPAQUE",
		"doubleSided":false,
		"name":"silicon earpiece"
	},
	{
		"pbrMetallicRoughness":{
			"baseColorFactor":[0.0,
			0.0,
			0.0,
			1.0],
			"metallicFactor":0.0,
			"roughnessFactor":0.17800000845454634
		},
		"emissiveFactor":[0.0,
		0.0,
		0.0],
		"alphaMode":"OPAQUE",
		"doubleSided":false,
		"name":"earbud body black"
	},
	{
		"pbrMetallicRoughness":{
			"baseColorFactor":[0.640536889097744,
			0.0,
			0.0,
			1.0],
			"metallicFactor":0.0,
			"roughnessFactor":0.20000000298023225
		},
		"emissiveFactor":[0.0,
		0.0,
		0.0],
		"alphaMode":"OPAQUE",
		"doubleSided":false,
		"name":"accent colour red"
	},
	{
		"pbrMetallicRoughness":{
			"baseColorFactor":[0.0,
			0.0,
			0.0,
			1.0],
			"metallicFactor":0.0,
			"roughnessFactor":1.0
		},
		"emissiveFactor":[0.0,
		0.0,
		0.0],
		"alphaMode":"OPAQUE",
		"doubleSided":false,
		"name":"speaker matte"
	},
	{
		"pbrMetallicRoughness":{
			"baseColorFactor":[0.21404114048223256,
			0.21404114048223256,
			0.21404114048223256,
			1.0],
			"metallicFactor":0.0,
			"roughnessFactor":0.0
		},
		"emissiveFactor":[0.0,
		0.0,
		0.0],
		"alphaMode":"OPAQUE",
		"doubleSided":false,
		"name":"charger node metal"
	}]
}