{
	"asset":{
		"version":"2.0",
		"generator":"Maxon Cinema 4D 2026.1.2 (#200000219)"
	},
	"scenes":[{
		"nodes":[0]
	}],
	"nodes":[{
		"name":"strawberry",
		"translation":[5.310194969177246,
		16.1783504486084,
		0.0],
		"rotation":[0.0,
		0.0,
		0.19509032368659974,
		0.9807852506637573],
		"scale":[1.0,
		1.0,
		1.0],
		"children":[1,
		2]
	},
	{
		"name":"bottle-object",
		"mesh":0,
		"translation":[-4.0643042994699746e-14,
		-1.50326669216156,
		0.0],
		"rotation":[0.0,
		-8.326672684688674e-17,
		0.0,
		-1.0],
		"scale":[1.0,
		1.0,
		1.0]
	},
	{
		"name":"bottle.1",
		"translation":[3.922195887843226e-14,
		1.50326669216156,
		0.0],
		"rotation":[0.0,
		-8.326672684688674e-17,
		0.0,
		-1.0],
		"scale":[1.0,
		1.0,
		1.0],
		"children":[3,
		4,
		5,
		6]
	},
	{
		"name":"label",
		"mesh":1,
		"translation":[3.951202234660418e-17,
		-3.00653338432312,
		-0.09259434789419174],
		"rotation":[0.0,
		0.0,
		0.0,
		-1.0],
		"scale":[1.0,
		1.0,
		1.0]
	},
	{
		"name":"bottle-object",
		"mesh":2,
		"translation":[0.0,
		-3.00653338432312,
		0.0],
		"rotation":[0.0,
		0.0,
		0.0,
		-1.0],
		"scale":[1.0,
		1.0,
		1.0]
	},
	{
		"name":"lquid",
		"translation":[0.0,
		-0.15152348577976228,
		0.0],
		"rotation":[0.0,
		0.0,
		0.0,
		-1.0],
		"scale":[1.0,
		1.0,
		1.0],
		"children":[7]
	},
	{
		"name":"cap",
		"translation":[0.0,
		6.164590358734131,
		0.0],
		"rotation":[0.0,
		0.0,
		0.0,
		-1.0],
		"scale":[1.0,
		1.0,
		1.0],
		"children":[8]
	},
	{
		"name":"lquid",
		"mesh":3
	},
	{
		"name":"Connect",
		"mesh":4
	}],
	"meshes":[{
		"name":"bottle-object",
		"primitives":[{
			"attributes":{
				"POSITION":1,
				"NORMAL":2
			},
			"indices":0,
			"material":0
		}]
	},
	{
		"name":"label",
		"primitives":[{
			"attributes":{
				"POSITION":4,
				"NORMAL":5
			},
			"indices":3,
			"material":1
		}]
	},
	{
		"name":"bottle-object",
		"primitives":[{
			"attributes":{
				"POSITION":7,
				"NORMAL":8
			},
			"indices":6,
			"material":2
		}]
	},
	{
		"name":"lquid",
		"primitives":[{
			"attributes":{
				"POSITION":10,
				"NORMAL":11,
				"TEXCOORD_0":12
			},
			"indices":9,
			"material":3
		}]
	},
	{
		"name":"Connect",
		"primitives":[{
			"attributes":{
				"POSITION":14,
				"NORMAL":15,
				"TEXCOORD_0":16
			},
			"indices":13,
			"material":4
		}]
	}],
	"accessors":[{
		"bufferView":0,
		"count":462,
		"type":"SCALAR",
		"componentType":5123,
		"byteOffset":0,
		"min":[0],
		"max":[461]
	},
	{
		"bufferView":1,
		"count":462,
		"type":"VEC3",
		"componentType":5126,
		"byteOffset":0,
		"min":[-1.725588321685791,
		0.33788642287254336,
		0.534222424030304],
		"max":[1.9173710346221924,
		5.519891262054443,
		2.0238726139068605]
	},
	{
		"bufferView":1,
		"count":462,
		"type":"VEC3",
		"componentType":5126,
		"byteOffset":12,
		"min":[-0.7723241448402405,
		-0.11944131553173065,
		0.4461054503917694],
		"max":[0.8817286491394043,
		0.32426199316978457,
		0.9993211030960083]
	},
	{
		"bufferView":2,
		"count":300,
		"type":"SCALAR",
		"componentType":5123,
		"byteOffset":0,
		"min":[0],
		"max":[299]
	},
	{
		"bufferView":3,
		"count":300,
		"type":"VEC3",
		"componentType":5126,
		"byteOffset":0,
		"min":[-1.725588321685791,
		2.7096128463745119,
		0.8503006100654602],
		"max":[1.725588321685791,
		5.519891262054443,
		2.075347423553467]
	},
	{
		"bufferView":3,
		"count":300,
		"type":"VEC3",
		"componentType":5126,
		"byteOffset":12,
		"min":[-0.7729789018630981,
		0.010062632150948048,
		0.6003801226615906],
		"max":[0.7729789018630981,
		0.32426199316978457,
		0.9994112849235535]
	},
	{
		"bufferView":4,
		"count":8976,
		"type":"SCALAR",
		"componentType":5123,
		"byteOffset":0,
		"min":[0],
		"max":[8975]
	},
	{
		"bufferView":5,
		"count":8976,
		"type":"VEC3",
		"componentType":5126,
		"byteOffset":0,
		"min":[-2.7540035247802736,
		-3.9120032787323,
		-2.885784387588501],
		"max":[2.7540035247802736,
		9.137205123901368,
		2.1396985054016115]
	},
	{
		"bufferView":5,
		"count":8976,
		"type":"VEC3",
		"componentType":5126,
		"byteOffset":12,
		"min":[-1.0,
		-1.0,
		-0.9999552369117737],
		"max":[1.0,
		1.0,
		0.9999552369117737]
	},
	{
		"bufferView":6,
		"count":5760,
		"type":"SCALAR",
		"componentType":5123,
		"byteOffset":0,
		"min":[0],
		"max":[5759]
	},
	{
		"bufferView":7,
		"count":5760,
		"type":"VEC3",
		"componentType":5126,
		"byteOffset":0,
		"min":[-1.9023447036743165,
		-6.656665802001953,
		-1.9023447036743165],
		"max":[1.9023447036743165,
		4.661569595336914,
		1.9023447036743165]
	},
	{
		"bufferView":7,
		"count":5760,
		"type":"VEC3",
		"componentType":5126,
		"byteOffset":12,
		"min":[-0.9995213150978088,
		-0.9999858140945435,
		-0.9995213150978088],
		"max":[0.9995213150978088,
		0.3590744733810425,
		0.9995213150978088]
	},
	{
		"bufferView":7,
		"count":5760,
		"type":"VEC2",
		"componentType":5126,
		"byteOffset":24,
		"min":[0.0,
		0.0],
		"max":[1.0,
		1.0]
	},
	{
		"bufferView":8,
		"count":41472,
		"type":"SCALAR",
		"componentType":5123,
		"byteOffset":0,
		"min":[0],
		"max":[41471]
	},
	{
		"bufferView":9,
		"count":41472,
		"type":"VEC3",
		"componentType":5126,
		"byteOffset":0,
		"min":[-0.9896486401557922,
		-0.45110833644866946,
		-0.9896486401557922],
		"max":[0.9896486401557922,
		0.14567580819129945,
		0.9896486401557922]
	},
	{
		"bufferView":9,
		"count":41472,
		"type":"VEC3",
		"componentType":5126,
		"byteOffset":12,
		"min":[-1.0,
		-0.6158312559127808,
		-1.0],
		"max":[1.0,
		1.0,
		1.0]
	},
	{
		"bufferView":9,
		"count":41472,
		"type":"VEC2",
		"componentType":5126,
		"byteOffset":24,
		"min":[0.0,
		0.308658242225647],
		"max":[0.4374760687351227,
		0.5]
	}],
	"bufferViews":[{
		"buffer":0,
		"byteOffset":0,
		"byteLength":924,
		"target":34963
	},
	{
		"buffer":0,
		"byteOffset":924,
		"byteLength":11088,
		"target":34962,
		"byteStride":24
	},
	{
		"buffer":1,
		"byteOffset":0,
		"byteLength":600,
		"target":34963
	},
	{
		"buffer":1,
		"byteOffset":600,
		"byteLength":7200,
		"target":34962,
		"byteStride":24
	},
	{
		"buffer":2,
		"byteOffset":0,
		"byteLength":17952,
		"target":34963
	},
	{
		"buffer":2,
		"byteOffset":17952,
		"byteLength":215424,
		"target":34962,
		"byteStride":24
	},
	{
		"buffer":3,
		"byteOffset":0,
		"byteLength":11520,
		"target":34963
	},
	{
		"buffer":3,
		"byteOffset":11520,
		"byteLength":184320,
		"target":34962,
		"byteStride":32
	},
	{
		"buffer":4,
		"byteOffset":0,
		"byteLength":82944,
		"target":34963
	},
	{
		"buffer":4,
		"byteOffset":82944,
		"byteLength":1327104,
		"target":34962,
		"byteStride":32
	}],
	"buffers":[{
		"uri":"data:application/octet-stream;base64,",
		"byteLength":12012
	},
	{
		"uri":"data:application/octet-stream;base64,",
		"byteLength":7800
	},
	{
		"uri":"data:application/octet-stream;base64,",
		"byteLength":233376
	},
	{
		"uri":"data:application/octet-stream;base64,",
		"byteLength":195840
	},
	{
		"uri":"data:application/octet-stream;base64,",
		"byteLength":1410048
	}],
	"images":[{
		"uri":"data:image/png;base64,"
	},
	{
		"uri":"data:image/png;base64,"
	}],
	"samplers":[{
		"magFilter":9729,
		"minFilter":9729,
		"wrapS":10497,
		"wrapT":10497
	},
	{
		"magFilter":9729,
		"minFilter":9729,
		"wrapS":10497,
		"wrapT":10497
	}],
	"textures":[{
		"sampler":0,
		"source":0
	},
	{
		"sampler":1,
		"source":1
	}],
	"materials":[{
		"pbrMetallicRoughness":{
			"baseColorTexture":{
				"index":0
			},
			"baseColorFactor":[1.0,
			1.0,
			1.0,
			1.0],
			"metallicFactor":0.0,
			"roughnessFactor":0.20000000298023225
		},
		"emissiveFactor":[0.0,
		0.0,
		0.0],
		"alphaMode":"BLEND",
		"doubleSided":false,
		"name":"strawberry label"
	},
	{
		"pbrMetallicRoughness":{
			"baseColorTexture":{
				"index":1
			},
			"baseColorFactor":[1.0,
			1.0,
			1.0,
			1.0],
			"metallicFactor":0.0,
			"roughnessFactor":0.145
		},
		"emissiveFactor":[0.0,
		0.0,
		0.0],
		"alphaMode":"BLEND",
		"doubleSided":false,
		"name":"logo"
	},
	{
		"pbrMetallicRoughness":{
			"baseColorFactor":[0.964535117149353,
			0.9645351767539978,
			0.964535117149353,
			1.0],
			"metallicFactor":0.0,
			"roughnessFactor":0.14500000688713045
		},
		"emissiveFactor":[0.0,
		0.0,
		0.0],
		"alphaMode":"OPAQUE",
		"doubleSided":false,
		"name":"glass"
	},
	{
		"pbrMetallicRoughness":{
			"baseColorFactor":[0.7512624263763428,
			0.01161225512623787,
			0.09538289159536362,
			1.0],
			"metallicFactor":0.0,
			"roughnessFactor":0.009000000427477062
		},
		"emissiveFactor":[0.0,
		0.0,
		0.0],
		"alphaMode":"OPAQUE",
		"doubleSided":false,
		"name":"strawberry liquid"
	},
	{
		"pbrMetallicRoughness":{
			"baseColorFactor":[0.8468737006187439,
			0.007499050348997116,
			0.109461709856987,
			1.0],
			"metallicFactor":0.7680000364780426,
			"roughnessFactor":0.20000000298023225
		},
		"emissiveFactor":[0.0,
		0.0,
		0.0],
		"alphaMode":"OPAQUE",
		"doubleSided":false,
		"name":"strawberry cap"
	}]
}